<mxfile host="app.diagrams.net" modified="2023-05-25T14:46:25.302Z" agent="Mozilla/5.0 (Windows NT 10.0; Win64; x64) AppleWebKit/537.36 (KHTML, like Gecko) Chrome/112.0.0.0 Safari/537.36 OPR/98.0.0.0" version="21.3.4" etag="5tP_M4Ga1u5bymXuUtjI" type="github">
  <diagram name="PÃ¡gina-1" id="yHOvn71JndSpQo8wtFvl">
    <mxGraphModel>
      <root>
        <mxCell id="0" />
        <mxCell id="1" parent="0" />
      </root>
    </mxGraphModel>
  </diagram>
</mxfile>
